<?xml version="1.0" encoding="utf-8"?>
<!-- Generator: Adobe Illustrator 14.0.0, SVG Export Plug-In . SVG Version: 6.00 Build 43363)  -->
<!DOCTYPE svg PUBLIC "-//W3C//DTD SVG 1.1//EN" "http://www.w3.org/Graphics/SVG/1.1/DTD/svg11.dtd">
<svg version="1.1" id="Layer_1" xmlns="http://www.w3.org/2000/svg" xmlns:xlink="http://www.w3.org/1999/xlink" x="0px" y="0px"
	 width="199.979px" height="24.052px" viewBox="0 0 199.979 24.052" enable-background="new 0 0 199.979 24.052"
	 xml:space="preserve">
<g>
	<path fill="#FFFFFF" d="M1.281,2.042h4.756V17.73c0,0.638,0.319,0.957,0.957,0.957h1.653v4.002H6.125
		c-0.87,0-1.609-0.14-2.219-0.42c-0.609-0.28-1.107-0.643-1.493-1.087c-0.387-0.445-0.672-0.938-0.855-1.479
		c-0.184-0.541-0.276-1.083-0.276-1.624V2.042z"/>
	<path fill="#FFFFFF" d="M18.304,21.414c-0.484,0.483-0.977,0.841-1.479,1.073c-0.503,0.232-1.17,0.348-2.001,0.348
		c-0.793,0-1.504-0.121-2.132-0.362c-0.628-0.242-1.165-0.585-1.609-1.03c-0.445-0.444-0.783-0.981-1.015-1.609
		c-0.232-0.628-0.348-1.31-0.348-2.044c0-0.58,0.101-1.146,0.304-1.697c0.203-0.551,0.522-1.034,0.957-1.45
		c0.435-0.416,0.986-0.749,1.653-1c0.667-0.251,1.465-0.377,2.393-0.377h3.161v-0.406c0-0.715-0.184-1.218-0.551-1.508
		c-0.368-0.29-0.967-0.435-1.798-0.435c-0.619,0-1.092,0.078-1.421,0.232c-0.329,0.155-0.687,0.425-1.073,0.812l-2.958-2.958
		c0.406-0.406,0.802-0.74,1.189-1c0.386-0.261,0.807-0.474,1.261-0.638c0.454-0.164,0.942-0.28,1.465-0.348
		c0.522-0.068,1.111-0.102,1.769-0.102c2.243,0,3.949,0.464,5.119,1.392c1.169,0.928,1.754,2.349,1.754,4.263v10.121h-4.64V21.414z
		 M18.188,16.425h-2.407c-0.464,0-0.832,0.116-1.102,0.348c-0.271,0.232-0.406,0.532-0.406,0.899c0,0.348,0.13,0.653,0.392,0.914
		c0.261,0.261,0.652,0.392,1.174,0.392c0.464,0,0.827-0.034,1.087-0.102c0.261-0.067,0.527-0.227,0.798-0.479
		c0.309-0.29,0.464-0.812,0.464-1.566V16.425z"/>
	<path fill="#FFFFFF" d="M27.265,17.527c0.329,0.329,0.672,0.58,1.03,0.754c0.357,0.174,0.71,0.305,1.059,0.392
		c0.348,0.087,0.667,0.136,0.957,0.145c0.29,0.01,0.541,0.015,0.754,0.015c0.174,0,0.377-0.015,0.609-0.043
		c0.232-0.029,0.454-0.082,0.667-0.16c0.212-0.077,0.392-0.179,0.537-0.304c0.145-0.126,0.217-0.295,0.217-0.508
		c0-0.212-0.072-0.42-0.217-0.624s-0.45-0.323-0.914-0.362L29.556,16.6c-0.677-0.058-1.291-0.184-1.841-0.377
		s-1.025-0.474-1.421-0.841c-0.396-0.367-0.706-0.821-0.928-1.363c-0.222-0.541-0.333-1.189-0.333-1.943
		c0-0.87,0.179-1.624,0.537-2.262c0.357-0.638,0.827-1.174,1.407-1.609c0.58-0.435,1.242-0.759,1.986-0.972
		c0.744-0.212,1.503-0.319,2.276-0.319c1.276,0,2.426,0.126,3.451,0.377c1.024,0.251,1.923,0.764,2.697,1.537l-2.929,2.929
		c-0.387-0.386-0.88-0.638-1.479-0.754c-0.6-0.116-1.208-0.174-1.827-0.174c-0.58,0-0.981,0.106-1.204,0.319
		c-0.222,0.213-0.333,0.406-0.333,0.58c0,0.039,0.005,0.102,0.015,0.188c0.009,0.087,0.043,0.174,0.102,0.261
		c0.058,0.087,0.154,0.174,0.29,0.261c0.135,0.087,0.338,0.141,0.609,0.16l2.407,0.232c0.812,0.077,1.518,0.251,2.117,0.522
		c0.599,0.271,1.087,0.619,1.464,1.044s0.657,0.909,0.841,1.45c0.184,0.542,0.275,1.122,0.275,1.74c0,0.928-0.184,1.721-0.551,2.378
		c-0.368,0.658-0.861,1.204-1.479,1.639c-0.619,0.435-1.334,0.754-2.146,0.957c-0.812,0.203-1.673,0.304-2.581,0.304
		c-0.58,0-1.16-0.02-1.74-0.058c-0.58-0.039-1.155-0.131-1.726-0.276s-1.131-0.367-1.682-0.667c-0.551-0.299-1.098-0.72-1.639-1.261
		L27.265,17.527z"/>
	<path fill="#FFFFFF" d="M39.792,11.351h-1.421V7.696h1.421V3.23h4.756v4.466h2.465v3.654h-2.465v6.38
		c0,0.638,0.319,0.957,0.957,0.957h1.508v4.002h-2.378c-0.87,0-1.609-0.14-2.218-0.42s-1.107-0.643-1.494-1.087
		s-0.672-0.938-0.855-1.479c-0.184-0.541-0.275-1.083-0.275-1.624V11.351z"/>
	<path fill="#FFFFFF" d="M49.392,7.087h4.64v1.276c0.483-0.483,1.054-0.845,1.711-1.087c0.657-0.241,1.295-0.362,1.914-0.362
		c0.773,0,1.474,0.13,2.103,0.392c0.628,0.261,1.193,0.681,1.696,1.261c0.677-0.599,1.353-1.024,2.03-1.276
		c0.676-0.251,1.469-0.377,2.378-0.377c0.734,0,1.436,0.116,2.103,0.348c0.667,0.232,1.213,0.561,1.639,0.986
		c0.676,0.677,1.131,1.382,1.363,2.117c0.232,0.735,0.348,1.518,0.348,2.349v9.976H66.56v-9.338c0-0.445-0.068-0.807-0.203-1.087
		c-0.136-0.28-0.305-0.498-0.508-0.653c-0.203-0.154-0.416-0.261-0.638-0.319c-0.223-0.058-0.411-0.087-0.566-0.087
		s-0.343,0.029-0.565,0.087s-0.435,0.165-0.638,0.319c-0.203,0.155-0.373,0.373-0.508,0.653s-0.203,0.643-0.203,1.087v9.338h-4.756
		v-9.338c0-0.445-0.068-0.807-0.203-1.087c-0.136-0.28-0.305-0.498-0.508-0.653c-0.203-0.154-0.416-0.261-0.638-0.319
		c-0.223-0.058-0.411-0.087-0.566-0.087s-0.343,0.029-0.565,0.087s-0.435,0.165-0.638,0.319c-0.203,0.155-0.373,0.373-0.508,0.653
		s-0.203,0.643-0.203,1.087v9.338h-4.756V7.087z"/>
	<path fill="#FFFFFF" d="M73.665,3.491c0-0.812,0.28-1.498,0.841-2.059c0.561-0.561,1.247-0.841,2.059-0.841
		s1.498,0.281,2.059,0.841c0.561,0.561,0.841,1.247,0.841,2.059c0,0.812-0.281,1.499-0.841,2.059
		c-0.561,0.561-1.247,0.841-2.059,0.841s-1.498-0.28-2.059-0.841C73.945,4.99,73.665,4.303,73.665,3.491z M74.187,7.696h4.756
		v14.993h-4.756V7.696z"/>
	<path fill="#FFFFFF" d="M81.958,7.087h4.64v1.276c0.483-0.483,1.054-0.845,1.711-1.087c0.657-0.241,1.295-0.362,1.914-0.362
		c0.734,0,1.396,0.116,1.986,0.348c0.59,0.232,1.097,0.561,1.522,0.986c0.677,0.677,1.107,1.382,1.291,2.117
		c0.184,0.735,0.276,1.518,0.276,2.349v9.976h-4.756v-9.338c0-0.445-0.068-0.807-0.203-1.087c-0.136-0.28-0.305-0.498-0.508-0.653
		c-0.203-0.154-0.416-0.261-0.638-0.319c-0.223-0.058-0.411-0.087-0.566-0.087s-0.343,0.029-0.565,0.087s-0.435,0.165-0.638,0.319
		c-0.203,0.155-0.373,0.373-0.508,0.653s-0.203,0.643-0.203,1.087v9.338h-4.756V7.087z"/>
	<path fill="#FFFFFF" d="M98.024,7.087h4.756v9.338c0,0.445,0.067,0.808,0.203,1.088s0.305,0.498,0.508,0.652
		c0.203,0.155,0.416,0.261,0.638,0.319s0.411,0.087,0.566,0.087c0.154,0,0.343-0.029,0.565-0.087
		c0.222-0.058,0.435-0.164,0.638-0.319c0.203-0.155,0.372-0.372,0.508-0.652c0.135-0.28,0.203-0.643,0.203-1.088V7.087h4.756v15.602
		h-4.64v-1.276c-0.483,0.483-1.054,0.846-1.711,1.087c-0.658,0.242-1.295,0.362-1.914,0.362c-0.735,0-1.397-0.116-1.986-0.348
		c-0.59-0.232-1.098-0.561-1.522-0.986c-0.677-0.676-1.107-1.382-1.291-2.117c-0.184-0.735-0.276-1.518-0.276-2.349V7.087z"/>
	<path fill="#FFFFFF" d="M114.729,11.351h-1.421V7.696h1.421V3.23h4.756v4.466h2.465v3.654h-2.465v6.38
		c0,0.638,0.319,0.957,0.957,0.957h1.508v4.002h-2.378c-0.87,0-1.609-0.14-2.218-0.42s-1.107-0.643-1.494-1.087
		s-0.672-0.938-0.855-1.479c-0.184-0.541-0.275-1.083-0.275-1.624V11.351z"/>
	<path fill="#FFFFFF" d="M137.03,20.398c-0.406,0.406-0.812,0.759-1.218,1.059c-0.406,0.3-0.846,0.556-1.32,0.769
		s-1,0.373-1.58,0.479c-0.58,0.106-1.228,0.159-1.943,0.159c-0.87,0-1.745-0.102-2.625-0.304c-0.88-0.203-1.672-0.59-2.378-1.16
		c-0.706-0.57-1.286-1.377-1.74-2.421c-0.455-1.044-0.682-2.407-0.682-4.089c0-1.276,0.174-2.407,0.522-3.393
		c0.348-0.986,0.831-1.822,1.45-2.509c0.618-0.686,1.353-1.203,2.204-1.551s1.788-0.522,2.813-0.522c1.121,0,2.122,0.193,3.001,0.58
		s1.614,0.913,2.204,1.58s1.039,1.45,1.349,2.349c0.309,0.899,0.464,1.861,0.464,2.886v2.117h-9.338c0,0.638,0.236,1.204,0.71,1.697
		c0.474,0.493,1.155,0.739,2.044,0.739c0.831,0,1.469-0.111,1.914-0.333c0.444-0.222,0.879-0.546,1.305-0.971L137.03,20.398z
		 M132.854,13.265c0-0.193-0.02-0.392-0.058-0.595c-0.039-0.203-0.106-0.411-0.203-0.624c-0.155-0.329-0.396-0.613-0.725-0.855
		c-0.329-0.242-0.773-0.362-1.334-0.362s-1.005,0.121-1.334,0.362c-0.329,0.242-0.57,0.527-0.725,0.855
		c-0.097,0.213-0.165,0.42-0.203,0.624c-0.039,0.203-0.058,0.401-0.058,0.595H132.854z"/>
	<path fill="#FFFFFF" d="M139.495,19.731c0-0.425,0.077-0.821,0.232-1.189c0.155-0.367,0.372-0.686,0.653-0.957
		c0.28-0.271,0.604-0.488,0.971-0.652c0.367-0.164,0.764-0.247,1.189-0.247s0.822,0.083,1.189,0.247
		c0.367,0.165,0.686,0.382,0.957,0.652c0.271,0.271,0.488,0.59,0.653,0.957c0.164,0.368,0.247,0.764,0.247,1.189
		c0,0.425-0.083,0.822-0.247,1.189c-0.165,0.368-0.382,0.691-0.653,0.972c-0.271,0.28-0.59,0.498-0.957,0.652
		s-0.764,0.232-1.189,0.232s-0.822-0.078-1.189-0.232s-0.691-0.372-0.971-0.652c-0.281-0.28-0.498-0.604-0.653-0.972
		C139.572,20.553,139.495,20.157,139.495,19.731z"/>
	<path fill="#FFFFFF" d="M159.679,20.862c-0.638,0.638-1.377,1.131-2.218,1.479c-0.841,0.348-1.813,0.522-2.915,0.522
		c-0.677,0-1.421-0.097-2.233-0.29c-0.812-0.193-1.576-0.575-2.291-1.146c-0.716-0.57-1.31-1.377-1.784-2.421
		c-0.474-1.044-0.71-2.417-0.71-4.118s0.236-3.074,0.71-4.118c0.474-1.044,1.068-1.851,1.784-2.421
		c0.715-0.57,1.479-0.952,2.291-1.146s1.556-0.29,2.233-0.29c1.102,0,2.073,0.174,2.915,0.522c0.841,0.348,1.581,0.841,2.218,1.479
		l-3.219,3.219c-0.31-0.309-0.609-0.541-0.899-0.696c-0.29-0.155-0.628-0.232-1.015-0.232c-0.329,0-0.604,0.048-0.827,0.145
		c-0.223,0.097-0.44,0.251-0.652,0.464c-0.522,0.542-0.783,1.566-0.783,3.074c0,1.508,0.261,2.533,0.783,3.074
		c0.212,0.213,0.43,0.368,0.652,0.464c0.222,0.097,0.498,0.145,0.827,0.145c0.386,0,0.725-0.077,1.015-0.232
		c0.29-0.154,0.59-0.386,0.899-0.696L159.679,20.862z"/>
	<path fill="#FFFFFF" d="M161.738,20.862c-0.329-0.348-0.604-0.715-0.827-1.102c-0.223-0.386-0.396-0.812-0.522-1.276
		c-0.126-0.464-0.217-0.986-0.275-1.566s-0.087-1.256-0.087-2.03c0-0.754,0.029-1.426,0.087-2.016s0.149-1.117,0.275-1.581
		c0.125-0.464,0.299-0.889,0.522-1.276c0.222-0.387,0.498-0.754,0.827-1.102c0.232-0.251,0.507-0.493,0.826-0.725
		c0.319-0.232,0.682-0.444,1.088-0.638c0.406-0.193,0.865-0.348,1.377-0.464c0.512-0.116,1.087-0.174,1.725-0.174
		c0.638,0,1.213,0.058,1.726,0.174c0.512,0.116,0.972,0.271,1.377,0.464c0.406,0.194,0.769,0.406,1.088,0.638
		c0.319,0.232,0.594,0.474,0.826,0.725c0.329,0.348,0.604,0.715,0.827,1.102c0.222,0.387,0.396,0.812,0.522,1.276
		c0.125,0.464,0.217,0.991,0.275,1.581s0.087,1.261,0.087,2.016c0,0.773-0.029,1.45-0.087,2.03s-0.15,1.102-0.275,1.566
		c-0.126,0.464-0.3,0.89-0.522,1.276c-0.223,0.387-0.498,0.754-0.827,1.102c-0.464,0.503-1.102,0.962-1.914,1.377
		c-0.812,0.416-1.846,0.624-3.103,0.624s-2.291-0.208-3.103-0.624C162.84,21.824,162.202,21.365,161.738,20.862z M165.479,18.136
		c0.29,0.29,0.715,0.435,1.276,0.435s0.986-0.145,1.276-0.435c0.309-0.309,0.502-0.734,0.58-1.276
		c0.077-0.541,0.116-1.198,0.116-1.972s-0.039-1.431-0.116-1.972c-0.078-0.541-0.271-0.967-0.58-1.276
		c-0.29-0.29-0.716-0.435-1.276-0.435s-0.986,0.145-1.276,0.435c-0.31,0.309-0.503,0.735-0.58,1.276
		c-0.077,0.542-0.116,1.199-0.116,1.972s0.039,1.431,0.116,1.972C164.976,17.402,165.169,17.828,165.479,18.136z"/>
	<path fill="#FFFFFF" d="M176.267,7.087h4.64v1.276c0.483-0.483,1.054-0.845,1.711-1.087c0.657-0.241,1.295-0.362,1.914-0.362
		c0.773,0,1.474,0.13,2.103,0.392c0.628,0.261,1.193,0.681,1.696,1.261c0.677-0.599,1.353-1.024,2.03-1.276
		c0.676-0.251,1.469-0.377,2.378-0.377c0.734,0,1.436,0.116,2.103,0.348c0.667,0.232,1.213,0.561,1.639,0.986
		c0.676,0.677,1.131,1.382,1.363,2.117c0.232,0.735,0.348,1.518,0.348,2.349v9.976h-4.756v-9.338c0-0.445-0.068-0.807-0.203-1.087
		c-0.136-0.28-0.305-0.498-0.508-0.653c-0.203-0.154-0.416-0.261-0.638-0.319c-0.223-0.058-0.411-0.087-0.566-0.087
		s-0.343,0.029-0.565,0.087s-0.435,0.165-0.638,0.319c-0.203,0.155-0.373,0.373-0.508,0.653s-0.203,0.643-0.203,1.087v9.338h-4.756
		v-9.338c0-0.445-0.068-0.807-0.203-1.087c-0.136-0.28-0.305-0.498-0.508-0.653c-0.203-0.154-0.416-0.261-0.638-0.319
		c-0.223-0.058-0.411-0.087-0.566-0.087s-0.343,0.029-0.565,0.087s-0.435,0.165-0.638,0.319c-0.203,0.155-0.373,0.373-0.508,0.653
		s-0.203,0.643-0.203,1.087v9.338h-4.756V7.087z"/>
</g>
</svg>
